<svg width="86" height="50" viewBox="0 0 96 115.601" xmlns="http://www.w3.org/2000/svg"><g id="svgGroup" stroke-linecap="round" fill-rule="evenodd" font-size="9pt" stroke="#62EDD1" stroke-width="0.25mm" fill="#62EDD1" style="stroke:#62EDD1;stroke-width:0.25mm;fill:#62EDD1"><path d="M 92.5 4.1 L 88.4 8.4 Q 90.7 8.9 92.3 10.5 Q 93.9 12.1 93.9 13.9 A 11.312 11.312 0 0 1 92.583 18.855 Q 90.89 22.187 87.025 25.639 A 40.895 40.895 0 0 1 86.5 26.1 A 91.695 91.695 0 0 1 81.264 30.262 Q 75.677 34.409 67.681 39.359 A 322.136 322.136 0 0 1 65 41 Q 57.2 53.6 50.9 64.6 A 36.232 36.232 0 0 0 60.233 61.906 A 30.284 30.284 0 0 0 67.3 57.5 Q 67.7 57.2 68.2 57.2 A 0.648 0.648 0 0 1 68.407 57.23 Q 68.7 57.329 68.7 57.75 A 0.592 0.592 0 0 1 68.597 58.04 Q 68.223 58.658 66.5 59.95 A 17.768 17.768 0 0 1 64.978 60.961 Q 62.92 62.194 59.65 63.6 Q 55 65.6 49.9 66.4 Q 34 93.4 28 101 A 124.112 124.112 0 0 1 24.154 105.671 Q 20.574 109.791 17.763 112.083 A 18.882 18.882 0 0 1 15 114 A 14.784 14.784 0 0 1 12.413 115.094 A 10.849 10.849 0 0 1 9.2 115.6 A 7.718 7.718 0 0 1 5.468 114.709 Q 3.988 113.908 2.857 112.388 A 10.683 10.683 0 0 1 2.45 111.8 Q 0 108 0 103.2 A 36.62 36.62 0 0 1 5.476 84.434 Q 9.014 78.43 14.84 72.502 A 104.971 104.971 0 0 1 26.9 62.1 Q 23 58.6 23 52.55 A 18.893 18.893 0 0 1 23.828 47.196 Q 24.519 44.857 25.787 42.344 A 41.801 41.801 0 0 1 27.65 39.05 A 56.221 56.221 0 0 1 34.673 30.07 A 70.76 70.76 0 0 1 40.05 25 A 62.074 62.074 0 0 1 49.633 18.35 A 83.703 83.703 0 0 1 59.25 13.7 Q 70.7 9 82.9 8.3 A 104.4 104.4 0 0 1 85.989 5.203 Q 87.396 3.855 88.674 2.754 A 43.329 43.329 0 0 1 91.1 0.8 A 4.549 4.549 0 0 1 92.601 0.166 Q 93.308 0 94.15 0 A 5.115 5.115 0 0 1 94.777 0.035 Q 95.424 0.116 95.729 0.381 A 0.782 0.782 0 0 1 96 1 Q 96 1.432 94.957 2.236 A 12.201 12.201 0 0 1 94.6 2.5 Q 93.2 3.5 92.5 4.1 Z M 43.65 26.05 A 63.74 63.74 0 0 0 36.349 33.754 A 52.777 52.777 0 0 0 32.45 39.35 Q 28.2 46.4 28.2 51.5 Q 28.2 55.205 29.414 57.748 A 9.14 9.14 0 0 0 30.5 59.5 Q 37.697 54.447 50.931 46.58 A 860.771 860.771 0 0 1 59.6 41.5 Q 71.052 21.841 80.41 11.107 A 90.812 90.812 0 0 1 81.3 10.1 Q 70.8 10.8 60.7 15.3 Q 50.6 19.8 43.65 26.05 Z M 45.4 66.9 L 43.3 66.9 Q 36.849 66.9 32.225 65.234 A 19.619 19.619 0 0 1 29.1 63.8 A 107.479 107.479 0 0 0 17.938 73.17 Q 6.246 84.558 4.022 95.687 A 26.549 26.549 0 0 0 3.5 100.9 Q 3.5 111.793 10.878 112.092 A 10.431 10.431 0 0 0 11.3 112.1 A 8.103 8.103 0 0 0 14.849 111.237 Q 16.811 110.289 18.8 108.3 Q 21 106.2 22.75 104.3 A 24.373 24.373 0 0 0 23.891 102.957 Q 25.277 101.212 27.05 98.5 Q 29.6 94.6 31.25 91.95 Q 32.513 89.921 34.568 86.368 A 520.363 520.363 0 0 0 35.9 84.05 Q 38.9 78.8 40.45 75.9 Q 41.942 73.108 45.149 67.351 A 1632.746 1632.746 0 0 1 45.4 66.9 Z M 91.5 14.1 A 3.594 3.594 0 0 0 90.938 12.065 Q 90.057 10.738 87.794 10.252 A 11.096 11.096 0 0 0 86.9 10.1 Q 78.2 20.2 67.7 36.7 A 210.226 210.226 0 0 0 74.461 32.491 Q 80.57 28.513 84.543 25.178 A 56.875 56.875 0 0 0 85.45 24.4 Q 91.5 19.1 91.5 14.1 Z M 46.1 64.9 L 46.5 64.9 Q 52.1 54.5 57.2 45.7 A 517.448 517.448 0 0 0 47.378 51.616 Q 43.024 54.31 39.304 56.756 A 220.563 220.563 0 0 0 32.5 61.4 A 14.899 14.899 0 0 0 36.914 63.65 Q 40.721 64.9 46.1 64.9 Z" vector-effect="non-scaling-stroke"/></g></svg>
