<svg xmlns="http://www.w3.org/2000/svg" x="0px" y="0px"
width="48" height="48"
viewBox="0 0 172 172"
style=" fill:#000000;"><g fill="none" fill-rule="nonzero" stroke="none" stroke-width="1" stroke-linecap="butt" stroke-linejoin="miter" stroke-miterlimit="10" stroke-dasharray="" stroke-dashoffset="0" font-family="none" font-weight="none" font-size="none" text-anchor="none" style="mix-blend-mode: normal"><path d="M0,172v-172h172v172z" fill="none"></path><path d="M86,172c-47.49649,0 -86,-38.50351 -86,-86v0c0,-47.49649 38.50351,-86 86,-86v0c47.49649,0 86,38.50351 86,86v0c0,47.49649 -38.50351,86 -86,86z" fill="#cccccc"></path><g><path d="M78.4965,113.84967l9.32025,-9.761l9.31667,9.761v40.23367h-18.63692z" fill="#546e7a"></path><path d="M63.55758,104.1245l13.27625,-2.41875l1.80242,13.373l-23.65,32.551l-15.07508,-10.95783z" fill="#f50057"></path><path d="M57.19717,87.46558l12.15825,5.848l-6.39983,11.87875l-38.26642,12.43058l-5.75842,-17.72317z" fill="#d500f9"></path><path d="M61.834,70.25842l6.39983,11.87875l-12.15825,5.848l-38.26642,-12.43417l5.75842,-17.72675z" fill="#29b6f6"></path><path d="M75.7015,59.0605l-1.80242,13.373l-13.27625,-2.41875l-23.65,-32.551l15.07867,-10.95425z" fill="#00e5ff"></path><path d="M93.5035,58.15033l-9.32025,9.761l-9.31667,-9.761v-40.23367h18.63692z" fill="#546e7a"></path><path d="M108.43883,67.87908l-13.27267,2.41875l-1.80242,-13.373l23.64642,-32.551l15.07867,10.95425z" fill="#f50057"></path><path d="M114.80642,84.53083l-12.16183,-5.848l6.39983,-11.87875l38.26642,-12.43058l5.75842,17.72317z" fill="#d500f9"></path><path d="M110.166,101.74158l-6.39983,-11.87875l12.15825,-5.84442l38.26642,12.43058l-5.75842,17.72675z" fill="#29b6f6"></path><path d="M96.2985,112.9395l1.806,-13.373l13.27267,2.41875l23.65,32.551l-15.07867,10.95425z" fill="#00e5ff"></path></g></g></svg>