<svg xmlns="http://www.w3.org/2000/svg" x="0px" y="0px"
width="48" height="48"
viewBox="0 0 172 172"
style=" fill:#000000;"><g fill="none" fill-rule="nonzero" stroke="none" stroke-width="1" stroke-linecap="butt" stroke-linejoin="miter" stroke-miterlimit="10" stroke-dasharray="" stroke-dashoffset="0" font-family="none" font-weight="none" font-size="none" text-anchor="none" style="mix-blend-mode: normal"><path d="M0,172v-172h172v172z" fill="#222e50"></path><g fill="#21a366"><path d="M86.02508,162.75142c-2.05683,0 -4.09575,-0.5375 -5.89817,-1.57667l-18.77667,-11.11908c-2.80575,-1.5695 -1.43692,-2.12492 -0.51242,-2.44383c3.741,-1.30792 4.49708,-1.60533 8.48892,-3.87358c0.41925,-0.24008 0.9675,-0.15408 1.3975,0.10033l14.4265,8.56058c0.51958,0.28308 1.26133,0.28308 1.7415,0l56.24758,-32.46858c0.51958,-0.29742 0.86,-0.89942 0.86,-1.51933v-64.90492c0,-0.64858 -0.33683,-1.2255 -0.87075,-1.548l-56.2225,-32.4435c-0.51958,-0.30817 -1.21117,-0.30817 -1.73075,0l-56.21533,32.43992c-0.54467,0.30817 -0.89225,0.91375 -0.89225,1.53367v64.9085c0,0.61992 0.33683,1.21117 0.87433,1.505l15.40475,8.89742c8.3635,4.18175 13.47333,-0.74533 13.47333,-5.70108v-64.05925c0,-0.91375 0.71667,-1.61967 1.634,-1.61967h7.12367c0.88867,0 1.61967,0.70233 1.61967,1.61967v64.0915c0,11.15133 -6.08092,17.55833 -16.65533,17.55833c-3.25367,0 -5.81575,0 -12.96808,-3.51883l-14.75617,-8.50325c-3.64783,-2.11417 -5.90175,-6.05942 -5.90175,-10.26625v-64.9085c0,-4.22475 2.25392,-8.16642 5.89817,-10.25192l56.3085,-32.48292c3.56183,-2.01383 8.29183,-2.01383 11.82858,0l56.23683,32.49725c3.62633,2.09625 5.89458,6.02717 5.89458,10.25192v64.9085c0,4.21042 -2.26825,8.13775 -5.89817,10.25192l-56.23683,32.47933c-1.80242,1.04275 -3.84492,1.57667 -5.92683,1.57667"></path><path d="M103.40067,118.02425c-24.61033,0 -29.77033,-11.29825 -29.77033,-20.77258c0,-0.89942 0.72742,-1.61967 1.63042,-1.61967h7.267c0.80267,0 1.47992,0.58408 1.60533,1.376c1.0965,7.40317 4.3645,11.137 19.24608,11.137c11.85367,0 16.89542,-2.67675 16.89542,-8.9655c0,-3.61917 -1.43692,-6.30667 -19.85167,-8.10908c-15.40475,-1.51933 -24.92208,-4.91275 -24.92208,-17.23225c0,-11.34842 9.57467,-18.10658 25.61008,-18.10658c18.00983,0 26.93592,6.25292 28.06108,19.68325c0.043,0.46583 -0.12542,0.91375 -0.43717,1.25417c-0.30817,0.3225 -0.74533,0.51958 -1.19683,0.51958h-7.30642c-0.75967,0 -1.42258,-0.53392 -1.57667,-1.2685c-1.75942,-7.78658 -6.01283,-10.277 -17.57267,-10.277c-12.93942,0 -14.44442,4.50425 -14.44442,7.88333c0,4.09575 1.77375,5.29258 19.23175,7.60383c17.28958,2.29333 25.499,5.53267 25.499,17.68375c0,12.24783 -10.22325,19.27475 -28.04675,19.27475"></path></g></g></svg>