<svg xmlns="http://www.w3.org/2000/svg" x="0px" y="0px"
width="48" height="48"
viewBox="0 0 172 172"
style=" fill:#000000;"><g fill="none" fill-rule="nonzero" stroke="none" stroke-width="1" stroke-linecap="butt" stroke-linejoin="miter" stroke-miterlimit="10" stroke-dasharray="" stroke-dashoffset="0" font-family="none" font-weight="none" font-size="none" text-anchor="none" style="mix-blend-mode: normal"><path d="M0,172v-172h172v172z" fill="#222e50"></path><g fill="#7e57c2"><path d="M82.41667,14.33333c-23.71092,0 -43,26.05083 -43,58.06792c0,17.32183 5.66883,32.85558 14.61283,43.48733c-0.172,0.76325 -0.2795,1.548 -0.2795,2.36142c0,5.93758 4.81242,10.75 10.75,10.75c5.93758,0 10.75,-4.81242 10.75,-10.75c0,-5.93758 -4.81242,-10.75 -10.75,-10.75c-1.12875,0 -2.193,0.22217 -3.21425,0.54467c-6.79758,-8.67525 -11.11908,-21.41758 -11.11908,-35.64342c0,-26.09025 14.46592,-47.31792 32.25,-47.31792c13.74925,0 25.48108,12.71008 30.11433,30.52283c4.0205,1.23983 8.01592,2.80217 11.9325,4.687c-4.13875,-26.22283 -21.41042,-45.95983 -42.04683,-45.95983z"></path><path d="M127.23342,71.96767c-14.14342,-8.57133 -30.00683,-12.33383 -43.65217,-10.60308c-1.97083,-2.44025 -4.95217,-4.03125 -8.33125,-4.03125c-5.93758,0 -10.75,4.81242 -10.75,10.75c0,5.93758 4.81242,10.75 10.75,10.75c4.558,0 8.43158,-2.84875 9.99392,-6.85133c11.17283,-1.35808 24.40967,1.90275 36.41742,9.18408c22.94408,13.90692 34.65083,37.87225 26.09383,53.43108c-2.96342,5.38933 -8.1915,9.21633 -15.1145,11.0725c-8.1915,2.18942 -17.94175,1.41183 -27.68842,-1.892c-3.00642,2.76633 -6.26725,5.36783 -9.76458,7.76867c9.14467,4.00258 18.619,6.106 27.48058,6.106c4.44333,0 8.73617,-0.52675 12.75308,-1.60175c9.82192,-2.62658 17.34692,-8.256 21.75442,-16.2755c11.29825,-20.53608 -2.13567,-50.955 -29.94233,-67.80742z"></path><path d="M125.41667,103.888c0,-5.91967 -4.81242,-10.72133 -10.75,-10.72133c-5.93758,0 -10.75,4.80167 -10.75,10.72133c0,2.39725 0.817,4.59025 2.15,6.37475c-4.58308,10.0405 -13.416,19.94842 -25.3055,27.1545c-13.84958,8.39933 -29.32958,11.47383 -41.40542,8.24883c-6.923,-1.85617 -12.15108,-5.68317 -15.1145,-11.0725c-6.09883,-11.08683 -1.86692,-26.43067 9.3525,-39.37367c-1.15742,-4.09933 -2.01383,-8.385 -2.52983,-12.81042c-18.1675,17.18925 -25.47392,40.57408 -16.23967,57.36558c4.4075,8.0195 11.9325,13.64892 21.75442,16.2755c4.01692,1.075 8.30617,1.60175 12.75308,1.60175c11.98983,0 25.10842,-3.827 37.0015,-11.03667c13.74567,-8.33125 23.94742,-19.98425 29.41558,-32.11383c5.42158,-0.54825 9.66783,-5.06325 9.66783,-10.61383z"></path></g></g></svg>